HIERARCHY
ROOT Hips
{
  OFFSET 263.056 91.6644 -274.608
  CHANNELS 6 Xposition Yposition Zposition Zrotation Xrotation Yrotation
  JOINT LeftUpLeg
  {
    OFFSET 8.64259 1.95398 -2.38835
    CHANNELS 3 Zrotation Xrotation Yrotation
    JOINT LeftLeg
    {
      OFFSET 43.7702 0 0
      CHANNELS 3 Zrotation Xrotation Yrotation
      JOINT LeftFoot
      {
        OFFSET 40.6238 0 0
        CHANNELS 3 Zrotation Xrotation Yrotation
        JOINT LeftToeBase
        {
          OFFSET 12.7242 0 0
          CHANNELS 3 Zrotation Xrotation Yrotation
          End Site
          {
            OFFSET 0 0 0
          }
        }
      }
    }
  }
  JOINT RightUpLeg
  {
    OFFSET -8.2249 1.95398 -2.59336
    CHANNELS 3 Zrotation Xrotation Yrotation
    JOINT RightLeg
    {
      OFFSET 43.5653 0 0
      CHANNELS 3 Zrotation Xrotation Yrotation
      JOINT RightFoot
      {
        OFFSET 40.6238 0 0
        CHANNELS 3 Zrotation Xrotation Yrotation
        JOINT RightToeBase
        {
          OFFSET 12.7242 0 0
          CHANNELS 3 Zrotation Xrotation Yrotation
          End Site
          {
            OFFSET 0 0 0
          }
        }
      }
    }
  }
  JOINT Spine
  {
    OFFSET 0.165834 0.87714 6.61349
    CHANNELS 3 Zrotation Xrotation Yrotation
    JOINT Spine1
    {
      OFFSET 7.38963 1.71661e-005 0
      CHANNELS 3 Zrotation Xrotation Yrotation
      JOINT Spine2
      {
        OFFSET 11.9445 1.14441e-005 0
        CHANNELS 3 Zrotation Xrotation Yrotation
        JOINT Spine3
        {
          OFFSET 14.7254 4.19617e-005 0
          CHANNELS 3 Zrotation Xrotation Yrotation
          JOINT Spine4
          {
            OFFSET 10.9679 0 0
            CHANNELS 3 Zrotation Xrotation Yrotation
            JOINT RightShoulder
            {
              OFFSET 2.46616 -1.6653 3.69651
              CHANNELS 3 Zrotation Xrotation Yrotation
              JOINT RightArm
              {
                OFFSET 13.0012 0 0
                CHANNELS 3 Zrotation Xrotation Yrotation
                JOINT RightForeArm
                {
                  OFFSET 28.7848 1.52588e-005 0
                  CHANNELS 3 Zrotation Xrotation Yrotation
                  JOINT RightHand
                  {
                    OFFSET 26.5688 1.52588e-005 0
                    CHANNELS 3 Zrotation Xrotation Yrotation
                    End Site
                    {
                      OFFSET 0 0 0
                    }
                  }
                }
              }
            }
            JOINT LeftShoulder
            {
              OFFSET 2.38034 -1.29275 -3.7523
              CHANNELS 3 Zrotation Xrotation Yrotation
              JOINT LeftArm
              {
                OFFSET 16.3182 6.10352e-005 0
                CHANNELS 3 Zrotation Xrotation Yrotation
                JOINT LeftForeArm
                {
                  OFFSET 27.0901 0 0
                  CHANNELS 3 Zrotation Xrotation Yrotation
                  JOINT LeftHand
                  {
                    OFFSET 24.5451 1.52588e-005 0
                    CHANNELS 3 Zrotation Xrotation Yrotation
                    End Site
                    {
                      OFFSET 0 0 0
                    }
                  }
                }
              }
            }
            JOINT Neck
            {
              OFFSET 5.0226 -0.0266342 0
              CHANNELS 3 Zrotation Xrotation Yrotation
              JOINT Head
              {
                OFFSET 6.69364 2.86102e-005 0
                CHANNELS 3 Zrotation Xrotation Yrotation
                End Site
                {
                  OFFSET 0 0 0
                }
              }
            }
          }
        }
      }
    }
  }
}
MOTION
Frames:	18
Frame Time:	0.0416667
-56.9733 49.6434 10.3351 -160.654 -77.7053 -149.113 152.52 77.0956 126.784 -115.065 -4.94033 4.23359 56.9164 18.05 28.1057 54.9197 27.8998 -1.79345 124.1 61.4189 150.512 -112.455 26.6267 -7.92361 75.8085 -18.3034 -9.88932 52.7009 1.53445 0.401787 1.21053 12.4012 -90.6934 2.08019 2.14902 -1.30665 -9.58973 2.08942 -1.39999 -32.1376 2.44231 -0.600095 -12.125 2.4423 -0.600096 77.3582 -38.0753 -125.675 -10.5024 -1.56834 -34.1247 22.4999 13.499 -51.5528 -15.1077 -0.262919 -3.56988 -109.727 -34.9136 41.7531 19.4562 5.8764 -17.5666 -24.3405 -21.5424 -56.6287 17.0487 0.0294128 -3.66895 -4.2364 0.571289 3.89009 -2.32034 0.157353 -1.22051 
-56.9094 50.7521 10.1504 -174.688 -76.9503 -165.627 166.262 75.1214 109.84 -112.587 -5.90317 4.25388 56.4136 17.9702 27.4793 55.9149 27.4247 -5.91457 127.91 62.4396 143.01 -111.619 27.7334 -7.89848 73.0315 -16.7864 -9.77847 55.7917 2.38332 4.08878 0.752588 12.5715 -90.5588 1.73489 1.28807 -1.05605 -9.93587 1.24034 -1.11173 -32.4747 1.54588 -0.620071 -12.4621 1.54589 -0.620074 77.5092 -38.0778 -125.425 -9.54726 -1.70217 -33.8838 21.9172 13.4892 -52.7793 -15.3148 -0.453144 -2.19375 -109.166 -34.9514 42.6521 18.5634 5.40532 -18.3405 -23.1375 -20.7324 -56.4927 15.5442 0.0739962 -3.35101 -4.21054 0.635919 3.71923 -2.83087 0.246175 -0.741759 
-56.9205 52.0866 10.4572 176.577 -76.5703 -176.43 172.856 72.6781 100.992 -110.35 -6.41676 4.17425 56.1938 17.6157 26.8652 58.3566 29.1244 -7.60946 134.299 62.6488 134.335 -111.189 26.4084 -7.51479 75.9436 -16.8957 -9.24919 53.795 2.09039 3.46152 0.376997 12.583 -90.4112 1.70905 0.594984 -0.785942 -9.96201 0.55982 -0.811369 -32.4971 0.803681 -0.570797 -12.4845 0.803683 -0.570798 76.7462 -38.6123 -126.375 -9.8804 -1.84422 -32.8088 22.7778 13.0318 -53.4948 -14.4035 -0.407401 -2.20177 -108.85 -35.2628 43.3433 18.2287 5.35327 -18.1488 -24.2164 -21.1367 -57.4542 17.2408 0.137083 -3.0521 -4.32078 0.756871 3.91236 -3.22171 0.352508 -1.0092 
-56.9485 53.9148 10.6847 171.884 -76.6525 177.101 178.209 70.4827 94.1511 -107.552 -7.18587 4.15587 56.8094 18.0344 25.6817 56.2391 27.3595 -6.98626 140.098 62.6932 127.27 -109.372 26.1257 -7.20398 76.1907 -16.3563 -8.9175 54.0481 2.10545 3.40847 0.144741 12.4806 -90.2779 1.91266 0.181964 -0.537754 -9.7584 0.158121 -0.54525 -32.2929 0.335176 -0.458202 -12.2803 0.335169 -0.458221 76.2835 -39.2155 -126.783 -10.0114 -2.30658 -31.6789 23.1366 12.6645 -54.8818 -16.0163 -0.468229 -2.3296 -109.057 -35.3979 43.1061 17.8953 5.48884 -17.3682 -24.2156 -21.1374 -57.8332 15.0584 -0.047026 -4.08925 -5.25776 0.761134 3.85582 -2.92707 0.392971 -0.759106 
-57.0395 55.9933 11.0716 170.405 -77.443 174.148 -178.642 68.3325 90.8002 -104.462 -6.94698 4.08819 56.6427 16.9299 25.156 58.3161 28.5832 -8.95416 145.806 62.2917 121.141 -107.373 24.6491 -6.80661 77.7018 -16.1615 -8.50158 52.3926 1.84809 2.69801 0.0306888 12.3428 -90.148 2.18812 0.00393365 -0.288736 -9.48286 -0.00876761 -0.288632 -32.0178 0.0905295 -0.27421 -12.0051 0.090529 -0.274202 76.5743 -39.6498 -126.072 -9.89263 -2.58063 -31.6787 24.6297 13.2763 -55.8564 -15.4668 -0.402815 -2.68542 -108.802 -35.4245 43.521 17.5981 5.48724 -17.5051 -24.1068 -20.7628 -58.2356 14.904 -0.0597912 -4.16755 -4.96664 0.708639 3.65378 -3.72141 0.355499 -0.718346 
-57.2332 58.297 11.882 172.358 -79.4121 174.8 -175.964 66.6912 88.5647 -101.373 -6.69851 3.96115 57.4986 16.9617 24.998 58.2913 28.5176 -9.07207 150.54 62.1239 117.124 -104.445 25.5771 -6.47404 78.5048 -16.0084 -8.18586 52.4532 2.14154 4.66463 -0.0108536 12.039 -89.9803 2.79596 -0.0138668 0.0381473 -8.87501 -0.0121729 0.0387085 -31.4102 -0.0246946 0.0322154 -11.3975 -0.0246882 0.0322201 76.5089 -39.5184 -126.251 -8.46255 -2.74973 -30.629 24.5468 12.9382 -57.0011 -15.3223 -0.430319 -2.42611 -108.547 -35.4784 43.9524 16.2733 5.31011 -16.9221 -24.6765 -20.8054 -59.4438 16.4262 0.0730333 -3.37845 -5.21448 0.819088 3.67005 -4.25222 0.476506 -0.808189 
-57.5129 60.901 12.8088 -177.128 -82.0991 -175.658 -173.479 65.1728 87.6228 -97.9745 -6.42928 3.7788 59.2178 17.171 23.9978 55.8933 26.8794 -7.43045 155.627 62.1653 114.029 -101.318 24.6788 -6.04993 78.4125 -15.4202 -7.91558 51.8435 2.13604 5.07443 0.112718 11.6332 -89.8274 3.60672 0.294249 0.338786 -8.06423 0.308882 0.325503 -30.5992 0.178824 0.411552 -10.5865 0.178827 0.411552 76.4334 -40.2051 -125.99 -7.11693 -2.86238 -29.7338 23.5978 12.2096 -58.6787 -14.9435 -0.435901 -2.21137 -108.491 -35.7957 44.239 15.0335 5.26678 -16.4767 -25.3002 -20.7531 -60.7201 16.8538 0.0664682 -3.43986 -5.43413 0.954759 3.57705 -5.13307 0.631098 -0.684527 
-57.9783 63.624 13.9538 -140.866 -83.8229 -140.266 -169.929 64.0112 87.2713 -94.4468 -6.43539 3.47902 60.6875 16.9128 22.8726 53.5054 25.2032 -5.59752 161.711 62.17 111.506 -97.6998 24.0382 -5.79942 79.5983 -15.377 -6.62583 49.8161 1.90184 4.94827 0.433157 11.1569 -89.6389 4.55689 1.01304 0.695192 -7.11383 1.04266 0.649926 -29.6494 0.757278 0.967494 -9.63678 0.757286 0.967506 76.6515 -40.7131 -125.367 -4.7571 -2.72208 -28.5134 21.8519 10.2186 -60.4496 -15.1735 -0.550352 -1.37556 -109.303 -36.1551 43.2045 14.066 5.01367 -14.7343 -25.1474 -19.9836 -62.2917 17.5046 0.154868 -2.97184 -6.39996 0.413033 3.43852 -5.28944 0.134481 -0.692922 
-58.3508 66.431 15.0615 -114.49 -83.5542 -113.579 -168.514 62.3574 88.9242 -90.7663 -5.63629 3.02133 61.7217 16.4261 22.281 53.8515 25.0829 -7.03151 165.257 60.8646 110.259 -93.6652 23.7258 -5.33424 78.7633 -14.525 -6.12808 49.7185 1.99985 5.83449 0.650632 10.7616 -89.6283 5.34547 1.45424 0.698985 -6.32482 1.4836 0.634299 -28.8631 1.17694 1.10374 -8.85045 1.17694 1.10376 76.6664 -41.28 -125.039 -2.74481 -3.27394 -26.8338 19.9189 8.57791 -62.4657 -16.3644 -0.71873 -0.609899 -109.119 -36.4695 43.6842 11.5992 4.56079 -13.8961 -24.8333 -19.141 -63.8364 18.3016 0.254018 -2.4811 -6.83399 0.359867 3.83734 -6.26256 0.078345 -1.06438 
-58.3531 69.2364 16.3343 -101.875 -84.2864 -100.573 -171.627 59.8081 90.771 -86.6325 -5.10238 2.83981 62.1914 16.4856 22.577 51.4074 23.1197 -5.74216 167.846 58.4863 107.451 -89.7756 22.072 -4.64103 79.531 -13.7326 -5.7277 48.0068 1.80618 5.84696 0.639656 10.437 -89.7142 5.99632 1.39817 0.520267 -5.67396 1.41971 0.458209 -28.2128 1.17717 0.916459 -8.2002 1.17716 0.916454 76.8697 -41.8661 -124.408 -0.800065 -4.31118 -25.1823 19.782 7.95976 -64.7577 -17.1783 -0.690647 -1.14236 -108.995 -36.9059 44.1448 8.91579 4.33511 -12.8307 -24.082 -18.0198 -65.4874 18.6375 0.444475 -1.49301 -7.33302 0.499542 4.17834 -6.96594 0.218665 -1.18336 
-58.4201 72.1017 17.5154 -88.8501 -84.5277 -87.5721 -172.834 57.1011 91.4416 -82.1069 -5.5389 2.63645 62.6843 15.6322 20.7235 50.3092 22.2034 -5.16568 170.491 56.0689 104.631 -85.5146 20.7412 -4.03792 79.281 -12.5894 -5.30904 47.1836 1.76753 6.40797 0.624959 10.1414 -89.7437 6.58819 1.35747 0.453635 -5.08211 1.37612 0.393439 -27.621 1.15837 0.840676 -7.60839 1.15838 0.840674 77.2454 -42.2674 -123.609 1.83049 -4.9779 -23.5275 17.5811 6.97701 -65.9186 -18.1001 -0.802019 -0.677924 -108.723 -37.1581 44.718 6.11009 4.39318 -12.0803 -24.3305 -17.543 -66.8926 19.1861 0.551094 -1.00247 -7.82711 0.564652 4.21932 -7.63468 0.300691 -1.0051 
-58.5768 74.8903 18.5886 -77.8906 -84.7293 -76.8285 -172.736 54.3241 91.6523 -77.475 -4.99632 2.19377 62.7197 14.3072 19.4429 51.02 22.4093 -6.95905 172.388 53.4138 102.101 -81.1608 19.3701 -3.4145 79.0119 -11.5856 -4.93755 45.8099 1.65907 7.0186 0.567808 9.84571 -89.7314 7.17965 1.24962 0.472872 -4.49076 1.26922 0.417399 -27.0289 1.04973 0.826605 -7.01621 1.04973 0.826596 77.3916 -42.9738 -123.019 2.95061 -6.9639 -21.9635 18.4701 6.80755 -67.1634 -19.6567 -0.863442 -0.920647 -108.309 -37.324 45.4563 3.16435 5.00941 -11.0772 -25.462 -17.6061 -68.1972 19.9035 0.545369 -1.13855 -8.68472 0.630599 3.94127 -8.52088 0.415099 -0.83727 
-58.7647 77.4651 19.6312 -70.6717 -84.4748 -69.7962 -173.183 51.1155 92.1682 -72.8874 -3.42933 1.78907 63.8055 14.3146 17.9747 47.4853 19.7117 -3.85267 174.3 50.7032 100.165 -76.8523 18.136 -2.97336 78.2964 -10.56 -4.59185 44.5347 1.51413 7.19358 0.542711 9.56782 -89.7633 7.73611 1.18666 0.404946 -3.93435 1.20332 0.352313 -26.4724 1.01009 0.742886 -6.4597 1.01008 0.74287 77.8052 -42.0526 -122.834 6.34132 -7.98525 -19.4279 16.6923 6.17604 -68.6413 -19.8479 -1.04455 0.127723 -107.683 -37.8623 46.7419 0.0643702 5.79111 -10.7979 -25.4769 -17.1455 -69.0162 21.9664 0.781672 -0.326982 -9.05081 0.74942 4.70088 -9.83146 0.542223 -1.37655 
-58.7669 79.8078 20.6276 -64.2258 -84.8384 -63.5985 -173.294 47.9981 91.9312 -68.2958 -2.84252 1.47827 63.8248 14.2009 18.1028 46.4379 18.2609 -5.7457 175.922 48.1064 98.38 -72.6805 18.3667 -2.71616 76.5474 -9.15209 -4.13585 44.82 1.61315 7.97047 0.471322 9.2804 -89.7645 8.31119 1.04435 0.402078 -3.3594 1.06104 0.356124 -25.8966 0.875079 0.697836 -5.88395 0.875079 0.697829 77.9025 -42.7473 -122.331 7.52274 -9.7502 -17.5084 17.4359 5.94547 -70.5398 -21.0754 -1.17334 0.340388 -107.494 -38.2152 47.2391 -2.62208 6.44497 -9.46979 -25.9604 -16.9591 -69.7441 23.0946 0.837249 -0.265615 -10.6252 0.754679 4.39067 -10.4325 0.629543 -1.28776 
-58.8008 82.1083 21.4797 -61.6402 -84.925 -61.2674 -173.005 44.7337 92.0171 -63.6292 -1.89979 1.01225 64.0444 13.1522 16.6381 45.8116 17.461 -6.72305 177.413 44.6934 96.8133 -67.8757 17.0106 -2.55123 76.6329 -8.71971 -3.95164 42.7386 1.31902 7.68109 0.448415 9.05244 -89.7613 8.76711 1.0007 0.408029 -2.90351 1.0176 0.363654 -25.4404 0.832351 0.688192 -5.42777 0.832349 0.688194 78.3593 -43.4624 -121.263 8.23521 -11.1933 -16.775 17.1594 5.72154 -70.8346 -21.0257 -1.23179 0.692751 -107.579 -38.3883 47.2087 -4.93897 6.60936 -7.90742 -25.2674 -16.4363 -69.9731 23.3295 0.862478 -0.196998 -11.7421 0.683085 4.05763 -11.0091 0.60595 -1.06214 
-58.8192 84.3162 22.2084 -62.6612 -84.9135 -62.5356 -172.502 41.2603 92.1888 -58.8121 -0.682048 0.431968 63.849 11.8736 15.3454 45.4429 16.8761 -7.96456 178.427 41.6848 95.6735 -63.3546 16.6978 -2.41994 74.6118 -7.36065 -3.4761 42.4501 1.38259 9.46415 0.425795 8.85547 -89.7576 9.16116 0.957807 0.412773 -2.50949 0.975004 0.369977 -25.0462 0.789777 0.680579 -5.03354 0.789778 0.68057 78.6491 -43.8396 -120.63 9.32485 -12.7147 -15.2302 17.1411 5.46805 -71.8117 -21.2721 -1.22033 0.532358 -107.214 -38.7253 47.9633 -7.34193 6.8379 -6.72204 -24.7952 -16.176 -70.323 22.3992 0.986078 0.534629 -13.1318 0.6691 4.15008 -11.152 0.648592 -1.17034 
-58.7504 86.3866 22.9287 -62.1516 -84.9408 -62.1848 -171.858 37.766 92.4186 -53.4822 1.52382 -0.35457 62.9626 11.0293 16.1187 44.9937 16.044 -10.3672 179.027 38.1071 94.5516 -58.286 14.4636 -2.20808 74.97 -7.08753 -3.3505 39.4802 0.941123 9.05824 0.371077 8.67283 -89.7633 9.52665 0.846564 0.40474 -2.14407 0.863556 0.367073 -24.6803 0.685789 0.640467 -4.66765 0.685781 0.640451 76.5765 -44.6756 -123.429 10.2582 -12.4349 -11.4524 16.4816 4.9623 -73.8792 -21.4674 -1.34158 1.11906 -106.115 -39.2191 49.9341 -9.99961 7.19809 -6.33296 -24.0304 -15.8276 -70.2175 22.5107 0.973296 0.449192 -13.8299 0.924044 4.32192 -11.8494 0.937253 -1.18935 
-58.685 88.4176 23.5549 -65.6986 -84.9491 -65.9813 -170.846 34.1598 92.5178 -48.2882 0.359661 -1.04639 63.6281 9.81145 12.9628 43.4526 14.4839 -11.4657 179.453 34.4133 93.6304 -52.9194 13.2635 -2.09491 73.9706 -6.46613 -3.12592 37.9535 0.732814 9.43913 0.371899 8.50883 -89.7617 9.85465 0.849377 0.404321 -1.81607 0.866345 0.366533 -24.3523 0.688585 0.640903 -4.33965 0.688594 0.6409 77.6382 -45.0733 -121.608 11.6787 -13.7492 -10.9591 17.01 5.24989 -73.4491 -21.3343 -1.19955 0.389848 -106.441 -39.7702 49.7347 -11.9068 7.19382 -4.3933 -23.4814 -15.4429 -70.5599 22.2825 0.970462 0.482603 -15.1791 1.00321 4.05538 -11.9694 1.06347 -1.06238 
